<svg width="36" height="36" viewBox="0 0 36 36" fill="none" xmlns="http://www.w3.org/2000/svg">
<path d="M7.09912 30.3362L7.09912 7.03428M7.09912 19.3706H17.2423C18.01 19.3706 18.3938 19.3706 18.687 19.2212C18.9449 19.0898 19.1546 18.8801 19.2861 18.6222C19.4355 18.329 19.4355 17.9451 19.4355 17.1775V7.8567C19.4355 7.08903 19.4355 6.7052 19.2861 6.41199C19.1546 6.15408 18.9449 5.94439 18.687 5.81297C18.3938 5.66357 18.01 5.66357 17.2423 5.66357H9.29225C8.52458 5.66357 8.14075 5.66357 7.84754 5.81297C7.58962 5.94439 7.37993 6.15408 7.24852 6.41199C7.09912 6.7052 7.09912 7.08903 7.09912 7.8567V19.3706ZM19.4355 8.40498H28.208C28.9756 8.40498 29.3594 8.40498 29.6527 8.55438C29.9106 8.68579 30.1203 8.89548 30.2517 9.1534C30.4011 9.44661 30.4011 9.83044 30.4011 10.5981V19.9189C30.4011 20.6866 30.4011 21.0704 30.2517 21.3636C30.1203 21.6215 29.9106 21.8312 29.6527 21.9626C29.3594 22.112 28.9756 22.112 28.208 22.112H21.6286C20.8609 22.112 20.4771 22.112 20.1839 21.9626C19.926 21.8312 19.7163 21.6215 19.5848 21.3636C19.4355 21.0704 19.4355 20.6866 19.4355 19.9189V8.40498Z" stroke="#1F2937" stroke-width="2" stroke-linecap="round" stroke-linejoin="round"/>
</svg>
