<svg width="16" height="16" viewBox="0 0 16 16" fill="none" xmlns="http://www.w3.org/2000/svg">
<path d="M9.33318 14.0002H6.66652M11.9998 5.3335C11.9998 4.27263 11.5784 3.25521 10.8283 2.50507C10.0781 1.75492 9.06072 1.3335 7.99985 1.3335C6.93898 1.3335 5.92157 1.75492 5.17142 2.50507C4.42128 3.25521 3.99985 4.27263 3.99985 5.3335C3.99985 7.39362 3.48016 8.80413 2.89963 9.7371C2.40993 10.5241 2.16509 10.9176 2.17407 11.0273C2.18401 11.1489 2.20976 11.1952 2.3077 11.2679C2.39616 11.3335 2.79491 11.3335 3.59242 11.3335H12.4073C13.2048 11.3335 13.6035 11.3335 13.692 11.2679C13.7899 11.1952 13.8157 11.1489 13.8256 11.0273C13.8346 10.9176 13.5898 10.5241 13.1001 9.73711C12.5195 8.80413 11.9998 7.39362 11.9998 5.3335Z" stroke="#111827" stroke-width="1.4" stroke-linecap="round" stroke-linejoin="round"/>
</svg>
